<svg width="227" height="248" viewBox="0 0 227 248" fill="none" xmlns="http://www.w3.org/2000/svg">
<g filter="url(#filter0_d_0_196)">
<path fill-rule="evenodd" clip-rule="evenodd" d="M0 122C0 178.885 46.1147 225 103 225C159.885 225 206 178.885 206 122C206 99.753 198.947 79.1534 186.955 62.3152C168.283 36.0983 137.638 19 103 19C46.1147 19 0 65.1147 0 122Z" fill="white"/>
<path fill-rule="evenodd" clip-rule="evenodd" d="M0 122C0 178.885 46.1147 225 103 225C159.885 225 206 178.885 206 122C206 99.753 198.947 79.1534 186.955 62.3152C168.283 36.0983 137.638 19 103 19C46.1147 19 0 65.1147 0 122Z" stroke="url(#paint0_linear_0_196)" stroke-width="15" stroke-linejoin="bevel" stroke-dasharray="493 9783"/>
</g>
<defs>
<filter id="filter0_d_0_196" x="-20.5" y="0.5" width="247" height="247" filterUnits="userSpaceOnUse" color-interpolation-filters="sRGB">
<feFlood flood-opacity="0" result="BackgroundImageFix"/>
<feColorMatrix in="SourceAlpha" type="matrix" values="0 0 0 0 0 0 0 0 0 0 0 0 0 0 0 0 0 0 127 0" result="hardAlpha"/>
<feOffset dy="2"/>
<feGaussianBlur stdDeviation="6.5"/>
<feColorMatrix type="matrix" values="0 0 0 0 0 0 0 0 0 0 0 0 0 0 0 0 0 0 0.0907452 0"/>
<feBlend mode="normal" in2="BackgroundImageFix" result="effect1_dropShadow_0_196"/>
<feBlend mode="normal" in="SourceGraphic" in2="effect1_dropShadow_0_196" result="shape"/>
</filter>
<linearGradient id="paint0_linear_0_196" x1="19.7247" y1="-20.3876" x2="-63.0351" y2="154.401" gradientUnits="userSpaceOnUse">
<stop stop-color="#EF0000"/>
<stop offset="1" stop-color="#FF9B9B"/>
</linearGradient>
</defs>
</svg>
